<?xml version="1.0" encoding="utf-8"?>
<!-- Generator: Adobe Illustrator 26.3.1, SVG Export Plug-In . SVG Version: 6.00 Build 0)  -->
<svg version="1.1" id="Layer_1" xmlns="http://www.w3.org/2000/svg" xmlns:xlink="http://www.w3.org/1999/xlink" x="0px" y="0px"
	 viewBox="0 0 124 33" style="enable-background:new 0 0 124 33;" xml:space="preserve">
<style type="text/css">
	.st0{fill-rule:evenodd;clip-rule:evenodd;fill:#635BFF;}
</style>
<g>
	<path class="st0" d="M99.5,17c0-5.3-2.6-9.5-7.5-9.5c-5,0-8,4.2-8,9.5c0,6.3,3.5,9.4,8.6,9.4c2.5,0,4.4-0.6,5.8-1.4v-4.2
		c-1.4,0.7-3,1.1-5.1,1.1c-2,0-3.8-0.7-4-3.2h10.2C99.4,18.6,99.5,17.5,99.5,17z M89.2,15c0-2.4,1.4-3.3,2.7-3.3
		c1.3,0,2.6,1,2.6,3.3H89.2z"/>
	<path class="st0" d="M76,7.5c-2,0-3.4,1-4.1,1.6l-0.3-1.3H67v24.3l5.2-1.1l0-5.9c0.7,0.5,1.9,1.3,3.7,1.3c3.7,0,7.1-3,7.1-9.6
		C83.1,10.8,79.6,7.5,76,7.5z M74.7,21.8c-1.2,0-2-0.4-2.5-1l0-7.7c0.5-0.6,1.3-1,2.5-1c1.9,0,3.2,2.1,3.2,4.9
		C77.9,19.7,76.6,21.8,74.7,21.8z"/>
	<polygon class="st0" points="59.9,6.3 65.1,5.1 65.1,0.9 59.9,2 	"/>
	<rect x="59.9" y="7.8" class="st0" width="5.2" height="18.2"/>
	<path class="st0" d="M54.3,9.4l-0.3-1.5h-4.5v18.2h5.2V13.7c1.2-1.6,3.3-1.3,4-1.1V7.8C57.9,7.6,55.5,7.1,54.3,9.4z"/>
	<path class="st0" d="M43.9,3.3l-5.1,1.1l0,16.7c0,3.1,2.3,5.4,5.4,5.4c1.7,0,3-0.3,3.6-0.7v-4.2c-0.7,0.3-4,1.2-4-1.9v-7.4h4V7.8
		h-4L43.9,3.3z"/>
	<path class="st0" d="M29.8,13.1c0-0.8,0.7-1.1,1.8-1.1c1.6,0,3.6,0.5,5.2,1.3V8.4c-1.7-0.7-3.4-1-5.2-1c-4.2,0-7,2.2-7,5.9
		c0,5.7,7.9,4.8,7.9,7.3c0,1-0.8,1.3-2,1.3c-1.7,0-3.9-0.7-5.7-1.7v5c1.9,0.8,3.9,1.2,5.7,1.2c4.3,0,7.3-2.1,7.3-5.9
		C37.7,14.4,29.8,15.5,29.8,13.1z"/>
</g>
</svg>
